<?xml version="1.0" encoding="UTF-8"?><svg id="a" xmlns="http://www.w3.org/2000/svg" viewBox="0 0 100 100"><defs><style>.b{fill:#fff;}</style></defs><path class="b" d="M95,50.4c0,20.13-12.3,37.34-30.45,43.37-2.31,.42-3.14-1.01-3.14-2.19,0-1.49,.06-9.06,.06-15.17,0-4.26-1.42-6.99-3.08-8.41,10.14-1.15,20.83-2.54,20.83-20.05,0-4.97-1.78-7.48-4.68-10.69,.47-1.18,2.01-6.03-.47-12.32-3.79-1.19-12.52,4.9-12.52,4.9-3.63-1.01-7.53-1.54-11.4-1.54s-7.76,.53-11.39,1.54c0,0-8.73-6.08-12.52-4.9-2.49,6.28-.95,11.14-.47,12.32-2.9,3.19-4.28,5.7-4.28,10.69,0,17.45,10.24,18.92,20.38,20.05-1.31,1.19-2.49,3.21-2.9,6.11-2.6,1.2-9.25,3.21-13.23-3.79-2.49-4.32-7-4.68-7-4.68-4.45-.06-.29,2.79-.29,2.79,2.98,1.36,5.04,6.65,5.04,6.65,2.67,8.13,15.37,5.41,15.37,5.41,0,3.81,.05,10.02,.05,11.14,0,1.18-.82,2.62-3.14,2.2-18.09-6.06-30.76-23.28-30.76-43.4C5,25.23,24.25,6.12,49.42,6.12s45.58,19.11,45.58,44.27ZM21.46,67.11c.36,.18,.54,.48,.42,.71-.13,.26-.49,.31-.78,.13-.36-.18-.54-.48-.42-.71,.13-.18,.42-.23,.78-.13Zm2.12,1.78c.31,.34,.36,.76,.13,.94-.24,.24-.65,.11-.95-.18-.31-.34-.36-.76-.12-.94,.23-.24,.65-.11,.94,.18Zm1.92,2.5c.29,.42,.29,.88,0,1.13-.23,.18-.73,0-1.02-.42-.29-.42-.29-.88,0-1.07,.29-.23,.76-.05,1.02,.36Zm2.23,2.49c.36,.34,.47,.88,.24,1.12-.24,.29-.76,.24-1.18-.18-.42-.34-.53-.88-.24-1.12,.24-.29,.78-.24,1.18,.18Zm2.85,1.66c.54,.17,.89,.58,.78,.95-.11,.36-.65,.54-1.12,.36-.54-.11-.91-.52-.78-.88,.13-.36,.65-.54,1.13-.42Zm3.58,1.89c-.6,.05-1.02-.23-1.02-.65,0-.36,.42-.66,.94-.66,.54-.05,1.02,.23,1.02,.66,0,.36-.42,.65-.94,.65Zm4.39-1.26c.06,.36-.31,.71-.84,.84-.54,.13-1.01-.11-1.07-.48-.05-.42,.31-.76,.84-.88,.53-.05,1.02,.18,1.07,.52Z"/></svg>