<?xml version="1.0" encoding="UTF-8"?><svg id="a" xmlns="http://www.w3.org/2000/svg" viewBox="0 0 100 100"><defs><style>.b{fill:#fff;}</style></defs><path class="b" d="M95,12.82V89.85c0,3.57-2.89,6.49-6.43,6.49H11.4c-3.53,0-6.4-2.91-6.4-6.49V12.82c0-3.57,2.87-6.49,6.4-6.49H88.57c3.54,0,6.43,2.91,6.43,6.49Zm-61.73,14.1c0-4.26-3.48-7.73-7.73-7.73s-7.73,3.47-7.73,7.73,3.45,7.73,7.73,7.73,7.73-3.46,7.73-7.73Zm-1.05,56.55V40.53h-13.36v42.95h13.36Zm49.98-23.55c0-11.57-2.51-20.47-16-20.47-6.5,0-10.85,3.55-12.64,6.93h-.18v-5.87h-12.79v42.95h13.33v-21.25c0-5.61,1.06-11.03,8.01-11.03s6.93,6.41,6.93,11.39v20.89h13.34v-23.55Z"/></svg>